<?xml version="1.0" encoding="utf-8" ?><svg xmlns="http://www.w3.org/2000/svg" xmlns:xlink="http://www.w3.org/1999/xlink" width="1024" height="1024" viewBox="0 0 1024 1024"><defs><linearGradient id="gradient_0" gradientUnits="userSpaceOnUse" x1="522.36414" y1="852.46454" x2="419.73453" y2="244.92233"><stop offset="0" stop-color="#681C0E"/><stop offset="1" stop-color="#91472E"/></linearGradient></defs><path fill="url(#gradient_0)" d="M673.528 250.661C723.907 245.836 714.301 307.017 706.354 338.46C691.615 396.78 655.961 451.802 618.083 497.984C613.25 503.842 608.259 509.568 603.114 515.154C595.552 523.344 584.595 533.947 580.047 543.74C574.211 556.304 571.277 571.705 568.307 585.255C566.371 594.106 564.239 602.912 561.91 611.668C556.628 631.572 550.889 651.352 544.698 670.992C525.086 734.112 499.902 798.184 450.252 843.927C426.688 866.274 397.69 878.768 365.166 877.863C321.149 876.639 290.549 840.109 295.126 796.241C304.815 703.369 406.376 648.671 474.701 599.934C490.47 588.685 508.177 578.183 522.185 565.611C525.297 551.111 529.53 536.21 532.971 521.74C535.906 509.402 538.645 496.408 542.003 484.21C535.807 495.949 529.333 507.538 522.585 518.967C504.753 549.569 485.802 578.32 452.17 593.781C422.836 607.266 382.703 597.455 370.083 565.725C353.053 522.907 375.613 472.393 391.769 432.373L396.377 420.235C405.912 394.758 418.888 352.975 406.274 327.678C379.371 273.729 301.608 276.126 254.321 298.149C225.369 311.633 198.49 334.25 187.392 364.477C184.057 373.561 182.014 386.016 186.158 394.952C189.993 403.531 200.402 403.661 207.337 399.021C224.764 387.362 231.926 356.141 236.651 337.024C241.947 362.114 247.663 388.736 231.461 411.749C212.296 441.528 162.722 433.016 160.201 396.958C154.949 321.847 235.466 272.149 300.976 264.486C342.757 259.6 394.648 264.797 427.347 289.929C442.159 301.229 452.961 316.979 458.167 334.867C471.933 383.062 443.495 438.139 427.049 482.286C418.652 504.568 402.834 545.2 426.286 563.097C446.693 578.67 477.195 553.978 490.138 539.206C549.879 471.025 560.088 374.077 609.682 300.268C621.173 283.166 653.023 253.855 673.528 250.661ZM337.117 834.915C345.236 842.712 356.101 846.995 367.357 846.835C438.543 845.484 491.41 673.216 509.407 616.676C510.728 612.524 512.533 605.439 511.87 601.082C500.358 608.459 489.318 616.81 478.178 624.742C430.584 658.627 338.933 727.834 326.12 787.019C322.905 801.874 324.639 816.999 333.101 829.86C334.285 831.662 335.63 833.353 337.117 834.915ZM593.148 495.62C637.194 437.451 688.869 366.244 688.684 289.678C688.67 283.99 684.36 278.935 679.197 276.874C630.778 311.241 611.621 392.843 598.338 446.828C595.895 456.857 593.323 466.853 590.623 476.816C589.471 481.202 585.005 495.386 586.716 498.938C589.706 500.629 591.483 497.815 593.148 495.62ZM506.611 695.626L505.318 699.386C501.866 707.655 499.074 716.234 495.578 724.519C492.987 730.661 474.864 767.829 475.271 770.9L474.737 770.878C474.613 771.468 474.564 771.321 474.673 771.499L475.163 769.747L475.297 770.912C481.922 761.363 488.389 747.383 493.501 736.914C506.078 711.154 516.018 685.295 525.698 658.372C529.434 645.707 532.257 637.493 532.008 624.142C523.447 644.339 514.886 670.803 507.77 691.774L506.611 695.626ZM389.331 540.33L389.758 540.714C390.062 538.729 390.215 529.078 390.301 526.432C390.676 514.921 392.475 505.408 394.856 494.772C399.207 475.334 430.208 399.328 425.975 384.831C423.376 390.548 419.586 400.652 417.709 406.547C408.155 436.546 378.805 511.143 389.331 540.33ZM526.247 585.986C538.329 579.077 561.19 563.967 565.199 550.399L564.771 549.978C556.81 557.058 531.555 577.967 525.866 585.702L526.247 585.986Z"/><path fill="#606062" fill-opacity="0.011764706" d="M507.77 691.774C508.571 693.376 507.997 692.827 509.33 693.677C513.455 691.644 515.633 678.275 516.738 674.187C517.324 673.913 517.911 673.639 518.498 673.364C519.461 669.924 521.815 662.114 523.407 659.505C522.691 658.397 522.883 658.777 522.499 657.526L523.127 656.628L523.968 656.54L525.698 658.372C516.018 685.295 506.078 711.154 493.501 736.914C488.389 747.383 481.922 761.363 475.297 770.912L475.163 769.747L474.673 771.499C474.564 771.321 474.613 771.468 474.737 770.878L475.271 770.9C474.864 767.829 492.987 730.661 495.578 724.519C499.074 716.234 501.866 707.655 505.318 699.386L506.568 700.175C506.897 701.658 506.039 703.135 505.621 704.849L505.804 704.939C507.452 703.435 508.704 698.497 509.442 696.159C508.845 695.218 509.385 696.379 506.611 695.626L507.77 691.774Z"/><path fill="#606062" fill-opacity="0.0078431377" d="M564.771 549.978L565.199 550.399C561.19 563.967 538.329 579.077 526.247 585.986L525.866 585.702C531.555 577.967 556.81 557.058 564.771 549.978Z"/><defs><linearGradient id="gradient_1" gradientUnits="userSpaceOnUse" x1="759.11218" y1="884.01373" x2="499.88992" y2="340.67432"><stop offset="0" stop-color="#681C0F"/><stop offset="1" stop-color="#924730"/></linearGradient></defs><path fill="url(#gradient_1)" d="M779.783 209.16C794.639 206.575 818.916 213.085 831.682 221.193C855.612 236.391 870.895 260.567 885.072 284.695C901.775 312.542 915.803 341.908 926.968 372.4C931.777 385.933 935.848 399.717 939.163 413.691C966.11 527.79 946.947 647.912 885.837 747.963C825.051 845.633 728.56 915.736 616.885 943.362C551.384 959.076 473.82 957.517 409.463 937.577C392.76 932.401 372.159 924.336 357.198 915.154C369.63 917.136 383.606 916.762 396.247 917.098C416.415 917.635 437.468 914.931 455.953 906.358C474.091 897.946 487.502 880.388 500.946 865.533C524.074 839.978 543.56 818.134 574.921 802.451C607.889 785.965 640.332 786.099 675.386 794.966C686.936 797.887 698.959 802.348 710.297 806.174C707.314 810.068 704.243 813.892 701.085 817.644C694.126 825.93 676.009 844.938 664.264 834.764C663.561 832.865 664.332 831.741 665.072 829.546C663.167 822.143 630.697 817.425 623.418 817.183C575.16 815.578 545.279 845.161 513.656 876.366C503.233 886.64 492.631 896.73 481.855 906.633C500.911 901.913 513.353 898.137 531.37 890.451C565.983 875.685 608.098 842.872 646.513 844.778C655.519 844.956 658.994 845.412 667.587 847.199C626.561 860.55 595.141 885.5 558.767 907.468C538.782 919.539 519.363 921.906 498.17 929.767C504.651 930.474 515.768 931.647 522.176 931.472C576.708 929.975 626.296 907.75 670.657 877.29C679.581 871.163 688.242 863.847 696.862 857.298C706.356 850.085 717.849 844.356 726.551 836.698C739.538 825.269 748.441 810.403 760.593 797.805C770.163 788.001 780.7 779.188 792.042 771.502C798.912 766.812 805.912 762.699 812.65 757.738C810.893 761.106 808.92 764.506 806.905 767.724C790.817 793.404 775.139 819.006 760.31 845.449C776.43 830.987 790.482 814.362 805.513 798.764C824.365 779.201 848.158 760.234 872.159 747.364C879.888 712.545 887.683 693.776 889.892 656.816C893.9 589.744 864.72 566.222 820.692 523.913C810.257 514.108 800.168 504.144 791.32 492.827C751.242 441.567 740.532 369.431 758.046 307.458C762.568 291.459 770.498 275.851 777.86 261.007C784.231 301.538 794.986 345.863 828.902 373.202C845.209 386.347 861.901 395.393 877.648 410.718C900.877 433.324 912.203 454.306 926.981 482.487C924.184 470.544 923.165 453.589 920.229 440.14C914.325 413.098 905.501 392.653 882.992 375.07C871.512 366.102 862.526 360.088 854.834 346.933C832.662 309.014 839.133 259.863 798.787 232.524C780.716 220.28 760.443 225.652 740.232 230.061C754.784 219.936 760.589 212.221 779.783 209.16ZM912.826 621.887C921.381 563.493 919.531 508.311 882.714 459.049C869.481 440.37 852.109 426.132 834.364 411.999C826.208 405.503 816.037 397.975 808.961 390.284C796.616 376.866 789.407 360.82 777.62 346.35C773.218 395.607 786.459 446.048 819.155 483.378C850.219 518.842 891.357 544.178 903.585 592.238C904.914 597.463 909.63 621.833 911.748 623.906L912.268 623.807L912.826 621.887ZM864.962 291.744C866.141 313.994 869.638 335.504 886.968 351.759C889.634 354.259 895.515 358.071 898.913 359.34C895.424 346.226 874.607 300.31 864.962 291.744ZM721.177 868.273C718.769 870.416 714.855 876.276 712.465 879.18C714.309 877.858 722.796 872.102 723.719 870.841C727.524 868.533 739.083 857.301 735.486 853.018C732.702 855.291 723.301 865.374 721.177 868.273Z"/><path fill="#8C4229" d="M801.935 403.252C807.922 406.024 820.332 420.886 825.941 426.159C851.066 449.777 879.232 472.809 893.289 505.203C896.353 512.262 898.59 520.677 900.42 528.177C897.572 526.021 885.429 500.817 879.716 493.606C856.648 464.489 813.966 439.351 801.935 403.252Z"/><path fill="#EDEBEF" fill-opacity="0.011764706" d="M721.177 868.273C723.261 867.452 722.709 867.288 724.343 867.867C724.584 870.749 724.207 868.948 723.719 870.841C722.796 872.102 714.309 877.858 712.465 879.18C714.855 876.276 718.769 870.416 721.177 868.273Z"/><defs><linearGradient id="gradient_2" gradientUnits="userSpaceOnUse" x1="229.12939" y1="865.19946" x2="211.29828" y2="205.58655"><stop offset="0" stop-color="#681C0F"/><stop offset="1" stop-color="#984E34"/></linearGradient></defs><path fill="url(#gradient_2)" d="M216.329 203.455L216.663 203.85C216.433 217.222 188.486 265.328 180.862 278.8C157.731 319.672 133.122 364.925 140.203 413.976C146.39 456.84 163.186 480.335 144.752 524.257C123.902 494.25 114.926 472.436 111.296 436.168C109.899 452.232 106.757 467.941 105.773 484.326C101.754 551.192 115.619 592.404 134.498 654.894C133.797 563.24 171.455 489.786 243.48 433.315C273.385 409.868 308.099 384.177 322.411 347.62C324.749 341.648 328.895 326.374 334.403 323.285C336.166 323.627 337.264 324.711 338.583 326.004C349.167 336.431 350.731 352.719 350.999 366.749C352.315 408.076 328.158 456.699 294.786 481.421C262.063 505.662 220.226 520.739 191.255 551.306C175.203 568.242 166.446 583.717 160.131 606.39C154.995 624.832 153.625 639.853 153.96 658.924C157.6 697.52 164.653 719.386 185.463 752.192C180.789 739.704 179.181 714.077 179.732 700.91C181.43 660.322 199.75 626.284 225.739 596.068C234.594 585.772 245.346 575.224 253.303 564.295C261.619 552.872 267.966 539.533 273.477 526.538C274.06 527.401 274.613 528.284 275.135 529.185C303.641 578.622 306.679 626.994 280.432 678.541C269.904 699.216 257.668 718.857 251.669 741.248C238.246 791.347 252.566 824.434 276.41 866.161C224.55 845.665 181.165 796.996 152.152 750.932C109.462 682.918 86.2709 604.485 85.1095 524.192C82.5978 402.578 125.542 297.647 208.948 211.503C211.451 208.919 213.813 206.082 216.329 203.455ZM219.781 780.072C216.154 763.76 212.913 728.442 216.267 711.958C222.74 680.151 245.466 650.372 258.527 620.336C262.654 611.147 267.283 601.33 271.089 592.064C261.095 655.974 216.113 682.915 225.452 759.745C228.017 743.626 232.693 725.44 239.074 710.529C255.253 672.726 284.239 638.238 277.287 594.405C276.533 589.652 274.424 576.616 270.686 573.265C243.643 614.526 206.121 653.831 203.05 705.669C201.454 732.618 208.766 755.922 219.781 780.072ZM218.349 498.119C227.473 493.915 237.043 488.186 245.629 483.151C274.147 466.43 306.787 441.75 318.351 409.6C319.418 406.634 321.258 400.973 320.832 397.908C313.155 406.084 306.287 415.932 298.67 424.482C280.179 445.237 260.497 464.042 237.682 480.013C234.484 482.252 218.026 495.231 218.349 498.119ZM216.003 478.706C227.607 470.862 254.658 450.02 262.543 438.728L262.53 438.142L262.255 437.946C250.199 445.435 224.119 466.895 215.646 478.134L216.003 478.706Z"/><path fill="#8C4229" d="M507.774 77.7715C609.934 75.7901 695.247 106.687 777.354 166.906C749.031 191.87 717.317 198.409 680.611 198.109C614.041 197.567 565.03 147.002 505.109 126.526C459.38 110.899 411.543 116.73 369.03 138.709C418.251 134.962 448.004 146.996 489.616 170.483C493.535 173.14 500.259 176.329 504.561 178.878C528.923 193.314 545.335 197.467 572.607 202.334C566.674 209.337 558.467 215.19 551.139 220.658C511.696 250.089 458.308 255.627 411.244 245.493C364.203 235.364 315.628 213.899 267.381 231.039C247.184 238.093 232.914 247.921 215.661 260.129C227.345 189.398 274.701 148.255 336.69 118.381C391.53 91.9507 447.137 80.2931 507.774 77.7715ZM290.217 190.856C344.399 171.771 376.476 180.07 430.037 197.533C444.134 202.129 462.653 207.596 475.937 213.562C429.297 210.995 378.979 187.949 333.545 193.118C318.183 195.037 303.117 198.847 288.689 204.462C316.169 200.406 338.461 201.976 365.529 207.845C378.207 210.594 389.772 214.212 402.164 217.442C429.026 224.446 457.062 224.898 484.139 218.802C490.585 217.351 502.382 214.776 508.463 212.507C471.382 194.28 434.43 173.035 393.62 164.549C387.784 163.335 377.235 161.803 371.294 162.709C340.984 165.839 315.259 172.615 290.217 190.856ZM502.101 103.657C511.084 107.671 520.504 110.625 529.7 114.169C553.816 123.462 579.064 131.897 604.437 137.093L652.825 146.822C656.722 147.582 666.295 148.505 669.118 149.279C671.888 149.692 679.735 151.288 681.762 150.018C681.266 148.197 679.319 147.019 677.641 146.186C657.888 136.385 636.483 126.612 615.855 118.853C592.926 110.227 567.103 105.762 542.849 103.301C535.386 102.639 524.609 101.589 517.177 102.224C511.633 102.512 507.563 102.951 502.101 103.657ZM699.391 168.214L699.986 167.82C694.086 165.338 674.64 163.233 666.889 161.651C648.987 157.999 627.326 149.857 609.577 148.137C612.617 150.798 618.451 153.794 622.121 155.767C644.19 167.631 674.613 173.759 699.391 168.214Z"/><path fill="#8C4229" d="M704.034 439.27C706.781 442.84 712.728 456.753 714.738 461.37C719.509 472.323 723.679 483.082 729.283 493.738C755.612 543.804 797.901 589.984 802.101 649C803.893 674.174 793.834 701.281 777.163 720.122C759.78 739.767 733.733 749.688 707.875 751.146C695.137 751.5 686.677 751.027 674.595 746.618C649.788 737.746 629.546 719.343 618.358 695.491C588.756 631.511 643.668 558.137 673.753 504.31C686.659 481.218 694.947 463.814 704.034 439.27ZM721.62 720.863C734.48 716.627 744.982 711.532 754.752 701.912C777.237 679.77 779.592 645.213 769.719 616.63C767.004 608.77 764.446 599.152 757.714 593.659C764.125 635.854 766.17 677.06 730.067 704.837C725.576 708.293 710.231 716.817 709.012 720.657C710.283 723.223 719.201 721.448 721.62 720.863ZM630.422 673.403L631.218 674.69C632.364 672.483 632.692 631.658 634.165 623.737C637.474 605.931 671.897 545.336 669.818 535.88C648.307 572.696 618.347 626.909 629.814 671.177C630.001 671.923 630.204 672.665 630.422 673.403Z"/><path fill="#8C4229" d="M835.197 589.326C854.808 598.292 861.362 628.05 862.057 647.332C863.264 680.795 846.232 711.131 823.746 734.657C820.846 737.651 817.592 740.204 814.37 742.846C820.06 731.304 826.043 721.069 831.36 709.002C850.503 665.56 848.518 632.811 835.197 589.326Z"/></svg>